<svg xmlns="http://www.w3.org/2000/svg" viewBox="0 0 100 90" shape-rendering="crispEdges">
  <rect x="10" y="0" width="10" height="10" fill="#FF4757"/>
  <rect x="20" y="0" width="10" height="10" fill="#FF4757"/>
  <rect x="30" y="0" width="10" height="10" fill="#FF4757"/>
  <rect x="60" y="0" width="10" height="10" fill="#FF4757"/>
  <rect x="70" y="0" width="10" height="10" fill="#FF4757"/>
  <rect x="80" y="0" width="10" height="10" fill="#FF4757"/>
  <rect x="0" y="10" width="10" height="10" fill="#FF4757"/>
  <rect x="10" y="10" width="10" height="10" fill="#FF6B7A"/>
  <rect x="20" y="10" width="10" height="10" fill="#FF6B7A"/>
  <rect x="30" y="10" width="10" height="10" fill="#FF4757"/>
  <rect x="40" y="10" width="10" height="10" fill="#FF4757"/>
  <rect x="50" y="10" width="10" height="10" fill="#FF4757"/>
  <rect x="60" y="10" width="10" height="10" fill="#FF6B7A"/>
  <rect x="70" y="10" width="10" height="10" fill="#FF4757"/>
  <rect x="80" y="10" width="10" height="10" fill="#FF4757"/>
  <rect x="90" y="10" width="10" height="10" fill="#FF4757"/>
  <rect x="0" y="20" width="10" height="10" fill="#FF4757"/>
  <rect x="10" y="20" width="10" height="10" fill="#FF6B7A"/>
  <rect x="20" y="20" width="10" height="10" fill="#FF4757"/>
  <rect x="30" y="20" width="10" height="10" fill="#FF4757"/>
  <rect x="40" y="20" width="10" height="10" fill="#FF4757"/>
  <rect x="50" y="20" width="10" height="10" fill="#FF4757"/>
  <rect x="60" y="20" width="10" height="10" fill="#FF4757"/>
  <rect x="70" y="20" width="10" height="10" fill="#FF4757"/>
  <rect x="80" y="20" width="10" height="10" fill="#FF4757"/>
  <rect x="90" y="20" width="10" height="10" fill="#FF4757"/>
  <rect x="0" y="30" width="10" height="10" fill="#FF4757"/>
  <rect x="10" y="30" width="10" height="10" fill="#FF4757"/>
  <rect x="20" y="30" width="10" height="10" fill="#FF4757"/>
  <rect x="30" y="30" width="10" height="10" fill="#FF4757"/>
  <rect x="40" y="30" width="10" height="10" fill="#FF4757"/>
  <rect x="50" y="30" width="10" height="10" fill="#FF4757"/>
  <rect x="60" y="30" width="10" height="10" fill="#FF4757"/>
  <rect x="70" y="30" width="10" height="10" fill="#FF4757"/>
  <rect x="80" y="30" width="10" height="10" fill="#D63040"/>
  <rect x="90" y="30" width="10" height="10" fill="#D63040"/>
  <rect x="10" y="40" width="10" height="10" fill="#FF4757"/>
  <rect x="20" y="40" width="10" height="10" fill="#FF4757"/>
  <rect x="30" y="40" width="10" height="10" fill="#FF4757"/>
  <rect x="40" y="40" width="10" height="10" fill="#FF4757"/>
  <rect x="50" y="40" width="10" height="10" fill="#FF4757"/>
  <rect x="60" y="40" width="10" height="10" fill="#FF4757"/>
  <rect x="70" y="40" width="10" height="10" fill="#D63040"/>
  <rect x="80" y="40" width="10" height="10" fill="#D63040"/>
  <rect x="20" y="50" width="10" height="10" fill="#FF4757"/>
  <rect x="30" y="50" width="10" height="10" fill="#FF4757"/>
  <rect x="40" y="50" width="10" height="10" fill="#FF4757"/>
  <rect x="50" y="50" width="10" height="10" fill="#FF4757"/>
  <rect x="60" y="50" width="10" height="10" fill="#D63040"/>
  <rect x="70" y="50" width="10" height="10" fill="#D63040"/>
  <rect x="30" y="60" width="10" height="10" fill="#FF4757"/>
  <rect x="40" y="60" width="10" height="10" fill="#FF4757"/>
  <rect x="50" y="60" width="10" height="10" fill="#D63040"/>
  <rect x="60" y="60" width="10" height="10" fill="#D63040"/>
  <rect x="40" y="70" width="10" height="10" fill="#D63040"/>
  <rect x="50" y="70" width="10" height="10" fill="#D63040"/>
  <rect x="40" y="80" width="10" height="10" fill="#D63040"/>
</svg>